<svg id="Layer_1" data-name="Layer 1" xmlns="http://www.w3.org/2000/svg" viewBox="0 0 154.87 47.25"><defs><style>.cls-1{fill:#063b4b;}.cls-2{fill:#6cbe9a;}</style></defs><path class="cls-1" d="M46.19,28.71c-.42,0-.83,0-1.24,0v14.7a.85.85,0,0,1-.86.87.87.87,0,0,1-.87-.85L43,28.93a21.53,21.53,0,0,0-2.42.46l.37,15.33A4,4,0,0,0,42.8,48l.22.15a2.47,2.47,0,0,1,1.15,2.23l-.86,15.3a22,22,0,0,1-.72,4.56l-1.35,5.17a23.68,23.68,0,0,0,4.95.52h0a23.75,23.75,0,0,0,5-.52l-1.36-5.17a23.42,23.42,0,0,1-.72-4.56l-.85-15.3a2.47,2.47,0,0,1,1.15-2.23l.22-.15a4,4,0,0,0,1.87-3.31l.37-15.33a22.14,22.14,0,0,0-2.43-.46l-.23,14.53a.87.87,0,0,1-.87.85.89.89,0,0,1-.61-.25.88.88,0,0,1-.26-.62V28.74q-.62,0-1.23,0Z" transform="translate(-22.57 -28.71)"/><path class="cls-2" d="M38.88,46.26a6.16,6.16,0,0,1-.21-1.49l-.35-14.71A23.6,23.6,0,0,0,33,32.71a15,15,0,0,0,1,7.79c-2.13-1.1-2.78-4.12-3-6.35a23.51,23.51,0,0,0-2.06,1.93C29.5,38.89,31.34,44.47,38.88,46.26Z" transform="translate(-22.57 -28.71)"/><path class="cls-2" d="M53.49,46.26a6.16,6.16,0,0,0,.21-1.49l.35-14.71a23.39,23.39,0,0,1,5.29,2.65,14.89,14.89,0,0,1-1,7.79c2.13-1.1,2.78-4.12,3-6.35a25,25,0,0,1,2.06,1.93C62.88,38.89,61,44.47,53.49,46.26Z" transform="translate(-22.57 -28.71)"/><path class="cls-2" d="M27.06,54c6.29-.71,11.77,4,14.28,6.66l.44-7.92c-2-2.12-9.42-9-19.08-2.89a23,23,0,0,0-.13,2.51A23.63,23.63,0,0,0,39.05,74.86l1.36-5.16a20.44,20.44,0,0,0,.64-3.87C37.4,58.42,27.06,54,27.06,54Z" transform="translate(-22.57 -28.71)"/><path class="cls-2" d="M65.31,54C59,53.26,53.55,58,51,60.63l-.44-7.92c1.95-2.12,9.41-9,19.08-2.89a23,23,0,0,1,.13,2.51A23.62,23.62,0,0,1,53.32,74.86L52,69.7a21.25,21.25,0,0,1-.63-3.87C55,58.42,65.31,54,65.31,54Z" transform="translate(-22.57 -28.71)"/><path class="cls-2" d="M31.55,45.11a14,14,0,0,1-3.5-4.63,15.46,15.46,0,0,1-.83-2.23c-.35.48-.69,1-1,1.48-.11.16-.21.34-.31.51-.25.41-.49.83-.7,1.26a10,10,0,0,0,2.9,1.92,11.72,11.72,0,0,0-3.52-.64c0,.12-.11.24-.16.37a19,19,0,0,0-.73,2c-.09.28-.17.56-.25.85a4.34,4.34,0,0,1-.25,1,16.08,16.08,0,0,1,7.39-1.87C30.91,45.07,31.23,45.08,31.55,45.11Z" transform="translate(-22.57 -28.71)"/><path class="cls-2" d="M60.83,45.11a13.85,13.85,0,0,0,3.49-4.63,15.46,15.46,0,0,0,.83-2.23c.36.48.7,1,1,1.48l.31.51c.25.41.48.83.7,1.26a10,10,0,0,1-2.91,1.92,11.8,11.8,0,0,1,3.52-.64c.06.12.11.24.17.37a16.87,16.87,0,0,1,.72,2c.09.28.18.56.26.85,0,.14.14.94.25,1a16.11,16.11,0,0,0-7.39-1.87C61.47,45.07,61.14,45.08,60.83,45.11Z" transform="translate(-22.57 -28.71)"/><path class="cls-1" d="M101.31,52a15.61,15.61,0,0,1-.34,3.69,13.76,13.76,0,0,1-1.21,3.4A12.85,12.85,0,0,1,97.69,62a12.17,12.17,0,0,1-2.9,2.29,14.57,14.57,0,0,1-3.73,1.46,17,17,0,0,1-4.51.48,15,15,0,0,1-1.89-.13,5.06,5.06,0,0,1-1.45-.43,2.2,2.2,0,0,1-.93-.82A2.45,2.45,0,0,1,82,63.54V60.91c0-1,0-2,0-3.16s0-2.26,0-3.44,0-2.36,0-3.52,0-2.28,0-3.38,0-2.09,0-3,0-1.73,0-2.42V40.34a1.09,1.09,0,0,1,.26-.68,2,2,0,0,1,.82-.57,5.24,5.24,0,0,1,1.43-.35,11.69,11.69,0,0,1,2.11-.06,22.89,22.89,0,0,1,3.75.52,17.52,17.52,0,0,1,3.43,1.16,14.11,14.11,0,0,1,3,1.82,12,12,0,0,1,2.33,2.53A13,13,0,0,1,100.68,48,14.81,14.81,0,0,1,101.31,52ZM96.5,53.14A11.09,11.09,0,0,0,96,49.65a7.09,7.09,0,0,0-1.6-2.78A8.16,8.16,0,0,0,91.54,45,14.5,14.5,0,0,0,87.17,44l.11,17.53A11.91,11.91,0,0,0,91,60.72a9.4,9.4,0,0,0,2.9-1.84,8.36,8.36,0,0,0,1.87-2.6A8,8,0,0,0,96.5,53.14Z" transform="translate(-22.57 -28.71)"/><path class="cls-1" d="M103.22,66.1a.75.75,0,0,1-.59-.4,3.23,3.23,0,0,1-.41-1,6,6,0,0,1-.17-1.31,4.56,4.56,0,0,1,.12-1.3,2.39,2.39,0,0,1,.48-1,1,1,0,0,1,.87-.4l3.74,0V55.23c0-1,0-2,0-3V44l-4.31,0c-.2,0-.37-.13-.51-.4a3.32,3.32,0,0,1-.32-1,7.46,7.46,0,0,1-.06-2.55,3.35,3.35,0,0,1,.29-1,.58.58,0,0,1,.52-.39l14.16,0a.73.73,0,0,1,.59.4,3.23,3.23,0,0,1,.41,1,5.93,5.93,0,0,1,.17,1.31,4.56,4.56,0,0,1-.12,1.3,2.46,2.46,0,0,1-.48,1,1.06,1.06,0,0,1-.87.4l-4.08,0,.08,16.74,4.59,0q.3,0,.51.39a3.49,3.49,0,0,1,.32,1,7.15,7.15,0,0,1,.14,1.27,7.45,7.45,0,0,1-.08,1.28,2.92,2.92,0,0,1-.3,1,.58.58,0,0,1-.51.39Z" transform="translate(-22.57 -28.71)"/><path class="cls-1" d="M136.63,59.3a7.86,7.86,0,0,1-.59,3.19,6.34,6.34,0,0,1-3.85,3.61,8,8,0,0,1-2.67.45,9.72,9.72,0,0,1-2.64-.37,11.91,11.91,0,0,1-2.57-1.06A12.26,12.26,0,0,1,122,63.46a11.63,11.63,0,0,1-1.89-2.19,1,1,0,0,1-.11-.77,3.29,3.29,0,0,1,.42-.9,5.53,5.53,0,0,1,1.64-1.52,2,2,0,0,1,.83-.29.58.58,0,0,1,.59.24,9.06,9.06,0,0,0,1.19,1.36A9.77,9.77,0,0,0,126,60.48a7.43,7.43,0,0,0,1.46.74,5.24,5.24,0,0,0,1.45.31A2.17,2.17,0,0,0,130,61.4a1.7,1.7,0,0,0,.69-.49,1.93,1.93,0,0,0,.34-.74,3.14,3.14,0,0,0,.09-.87,3.39,3.39,0,0,0-.15-.89,3.93,3.93,0,0,0-.35-.8,7,7,0,0,0-1.24-1.52c-.53-.51-1.11-1-1.75-1.53s-1.29-1-2-1.56-1.35-1-2-1.6A19.48,19.48,0,0,1,122,49.72,7.14,7.14,0,0,1,120.78,48a6.59,6.59,0,0,1-.62-3.11,7.2,7.2,0,0,1,2.23-4.8,7.19,7.19,0,0,1,1.8-1.23,7.5,7.5,0,0,1,2-.62,8.52,8.52,0,0,1,2.2,0,9.08,9.08,0,0,1,2.2.5,9.68,9.68,0,0,1,2.06,1,11.55,11.55,0,0,1,1,.73c.37.31.75.63,1.13,1s.73.69,1,1a6.71,6.71,0,0,1,.73.87,1.08,1.08,0,0,1,.14.9,2.11,2.11,0,0,1-.51.88,4.57,4.57,0,0,1-.93.78,5.8,5.8,0,0,1-1.09.54,3.77,3.77,0,0,1-1,.22.7.7,0,0,1-.64-.23,9.34,9.34,0,0,0-2.06-1.9,7.28,7.28,0,0,0-2.09-1,3.42,3.42,0,0,0-1.75-.08,1.49,1.49,0,0,0-1.06.85,1.52,1.52,0,0,0,0,1.15,4.08,4.08,0,0,0,.72,1.28,11.51,11.51,0,0,0,1.29,1.38c.51.48,1.06,1,1.66,1.46s1.2,1,1.83,1.49,1.23,1,1.79,1.52,1.09,1,1.56,1.5a9.1,9.1,0,0,1,1.12,1.47,10,10,0,0,1,.79,1.82A6.7,6.7,0,0,1,136.63,59.3Z" transform="translate(-22.57 -28.71)"/><path class="cls-1" d="M155.17,59.3a8,8,0,0,1-.59,3.19,6.41,6.41,0,0,1-3.85,3.61,8,8,0,0,1-2.67.45,9.72,9.72,0,0,1-2.64-.37,11.71,11.71,0,0,1-2.57-1.06,12.26,12.26,0,0,1-2.31-1.66,11.63,11.63,0,0,1-1.89-2.19,1,1,0,0,1-.11-.77,2.79,2.79,0,0,1,.42-.9,5.44,5.44,0,0,1,.75-.86,5.1,5.1,0,0,1,.89-.66,2,2,0,0,1,.83-.29A.58.58,0,0,1,142,58a9.06,9.06,0,0,0,1.19,1.36,9.77,9.77,0,0,0,1.37,1.09,7.17,7.17,0,0,0,1.46.74,5.24,5.24,0,0,0,1.45.31,2.17,2.17,0,0,0,1-.13,1.6,1.6,0,0,0,.68-.49,1.81,1.81,0,0,0,.35-.74,3.14,3.14,0,0,0,.09-.87,3,3,0,0,0-.16-.89,3.44,3.44,0,0,0-.34-.8,7,7,0,0,0-1.24-1.52c-.53-.51-1.11-1-1.75-1.53s-1.3-1-2-1.56-1.35-1-2-1.6a20.81,20.81,0,0,1-1.7-1.68A6.88,6.88,0,0,1,139.32,48a6.59,6.59,0,0,1-.62-3.11,7.2,7.2,0,0,1,2.23-4.8,7.19,7.19,0,0,1,1.8-1.23,7.5,7.5,0,0,1,2.05-.62,8.52,8.52,0,0,1,2.2,0,9.08,9.08,0,0,1,2.2.5,9.68,9.68,0,0,1,2.06,1,10.21,10.21,0,0,1,1,.73c.38.31.76.63,1.14,1s.72.69,1,1a6.15,6.15,0,0,1,.74.87,1.08,1.08,0,0,1,.14.9,2.35,2.35,0,0,1-.51.88,4.57,4.57,0,0,1-.93.78,5.59,5.59,0,0,1-1.1.54,3.62,3.62,0,0,1-1,.22.7.7,0,0,1-.64-.23,9.34,9.34,0,0,0-2.06-1.9,7.41,7.41,0,0,0-2.09-1,3.42,3.42,0,0,0-1.75-.08,1.49,1.49,0,0,0-1.06.85,1.52,1.52,0,0,0,0,1.15,4.08,4.08,0,0,0,.72,1.28,10.09,10.09,0,0,0,1.29,1.38c.51.48,1.06,1,1.66,1.46s1.2,1,1.83,1.49,1.22,1,1.79,1.52,1.09,1,1.56,1.5a9,9,0,0,1,1.11,1.47,9.37,9.37,0,0,1,.79,1.82A6.39,6.39,0,0,1,155.17,59.3Z" transform="translate(-22.57 -28.71)"/><path class="cls-1" d="M177.43,65.25a.74.74,0,0,1-.4.59,3.44,3.44,0,0,1-1,.41,7,7,0,0,1-1.34.17,5.18,5.18,0,0,1-1.33-.13,2.41,2.41,0,0,1-1-.47,1,1,0,0,1-.4-.87c0-.35,0-.86,0-1.53s0-1.44,0-2.33V54.92h-4.53l-2.41,0-2.42,0,.08,10.54a.73.73,0,0,1-.4.59,3.16,3.16,0,0,1-1,.41,6.2,6.2,0,0,1-1.33.17,4.74,4.74,0,0,1-1.33-.12,2.8,2.8,0,0,1-1-.47,1,1,0,0,1-.39-.87c0-.37,0-.88,0-1.55s0-1.44,0-2.34,0-1.86,0-2.91V55c0-1.13,0-2.28,0-3.44v-3.4c0-1.11,0-2.15,0-3.15s0-1.89,0-2.68,0-1.45,0-2,0-.91,0-1.12.13-.36.4-.5a3.66,3.66,0,0,1,1-.34,8.05,8.05,0,0,1,1.26-.15,8.45,8.45,0,0,1,1.26.06,2.78,2.78,0,0,1,1,.28.58.58,0,0,1,.39.51l.06,10.4H172c0-1.25,0-2.46,0-3.61s0-2.2,0-3.13,0-1.72,0-2.36,0-1.08,0-1.31.13-.36.39-.51a3.75,3.75,0,0,1,1-.33,7,7,0,0,1,1.26-.14,7.33,7.33,0,0,1,1.26,0,3.38,3.38,0,0,1,1,.28.61.61,0,0,1,.38.52Z" transform="translate(-22.57 -28.71)"/></svg>