<svg id="Layer_1" data-name="Layer 1" xmlns="http://www.w3.org/2000/svg" viewBox="0 0 167.25 42.15"><defs><style>.cls-1{fill:#fff;}.cls-2{fill:#6cbe9a;}</style></defs><path class="cls-1" d="M40.21,29q-.55,0-1.11,0V42.11a.78.78,0,0,1-.22.55.78.78,0,0,1-1.32-.54l-.21-13a21.68,21.68,0,0,0-2.16.41l.32,13.68a3.64,3.64,0,0,0,1.67,3l.2.13a2.19,2.19,0,0,1,1,2L37.64,62A20.16,20.16,0,0,1,37,66.05l-1.21,4.61a21.38,21.38,0,0,0,4.42.46h0a21.52,21.52,0,0,0,4.42-.46l-1.22-4.61A20.88,20.88,0,0,1,42.77,62L42,48.33a2.23,2.23,0,0,1,1-2l.2-.13a3.61,3.61,0,0,0,1.67-3l.33-13.68c-.71-.17-1.43-.31-2.16-.41l-.21,13a.77.77,0,0,1-.78.76.76.76,0,0,1-.54-.22.79.79,0,0,1-.23-.55V29c-.36,0-.73,0-1.1,0Z" transform="translate(-19.13 -28.97)"/><path class="cls-2" d="M33.69,44.62a5.84,5.84,0,0,1-.19-1.32l-.31-13.13a20.87,20.87,0,0,0-4.72,2.37,13.31,13.31,0,0,0,.93,7c-1.91-1-2.49-3.68-2.64-5.67a21.52,21.52,0,0,0-1.85,1.72C25.31,38.05,27,43,33.69,44.62Z" transform="translate(-19.13 -28.97)"/><path class="cls-2" d="M46.73,44.62a5.83,5.83,0,0,0,.18-1.32l.32-13.13a20.6,20.6,0,0,1,4.71,2.37,13.36,13.36,0,0,1-.92,7c1.9-1,2.48-3.68,2.64-5.67a21.39,21.39,0,0,1,1.84,1.72C55.1,38.05,53.45,43,46.73,44.62Z" transform="translate(-19.13 -28.97)"/><path class="cls-2" d="M23.14,51.5c5.62-.63,10.5,3.6,12.74,6l.4-7.07c-1.74-1.89-8.41-8.07-17-2.58A20.73,20.73,0,0,0,19.13,50a21.08,21.08,0,0,0,14.71,20.1l1.22-4.6a19.24,19.24,0,0,0,.56-3.45C32.36,55.47,23.14,51.5,23.14,51.5Z" transform="translate(-19.13 -28.97)"/><path class="cls-2" d="M57.27,51.5c-5.61-.63-10.49,3.6-12.74,6l-.39-7.07c1.74-1.89,8.4-8.07,17-2.58.07.73.11,1.49.11,2.24a21.08,21.08,0,0,1-14.71,20.1l-1.21-4.6a17.61,17.61,0,0,1-.56-3.45C48.05,55.47,57.27,51.5,57.27,51.5Z" transform="translate(-19.13 -28.97)"/><path class="cls-2" d="M27.15,43.6A12.31,12.31,0,0,1,24,39.46a14,14,0,0,1-.74-2c-.32.43-.62.86-.91,1.31l-.28.46c-.22.37-.43.74-.62,1.13a9,9,0,0,0,2.59,1.71,10.22,10.22,0,0,0-3.14-.57c-.05.11-.1.22-.14.33a14.05,14.05,0,0,0-.65,1.74c-.08.25-.16.5-.23.75a3.62,3.62,0,0,1-.22.89,14.31,14.31,0,0,1,6.59-1.66Q26.72,43.57,27.15,43.6Z" transform="translate(-19.13 -28.97)"/><path class="cls-2" d="M53.27,43.6a12.45,12.45,0,0,0,3.12-4.14,14,14,0,0,0,.74-2c.32.43.62.86.9,1.31.1.15.19.31.28.46.22.37.43.74.63,1.13a9,9,0,0,1-2.6,1.71,10.31,10.31,0,0,1,3.15-.57l.14.33a18.21,18.21,0,0,1,.65,1.74c.08.25.15.5.22.75s.13.84.23.89a14.31,14.31,0,0,0-6.59-1.66Q53.69,43.57,53.27,43.6Z" transform="translate(-19.13 -28.97)"/><path class="cls-1" d="M75.14,62.87V37.12h7.49a40.81,40.81,0,0,1,6.1.39,13.58,13.58,0,0,1,4.1,1.22A12.94,12.94,0,0,1,98,43.4a13.08,13.08,0,0,1,0,13.19,13,13,0,0,1-5.14,4.66,13.71,13.71,0,0,1-4.15,1.23,45.87,45.87,0,0,1-6.73.39ZM84.32,55a7.14,7.14,0,0,0,4.57-1.22A4.61,4.61,0,0,0,90.34,50,4.77,4.77,0,0,0,89,46.26,6.21,6.21,0,0,0,84.73,45h-.41Z" transform="translate(-19.13 -28.97)"/><path class="cls-1" d="M103.81,62.87V37.12h9.41V62.87Z" transform="translate(-19.13 -28.97)"/><path class="cls-1" d="M115.87,60.67l3-7.21a19.66,19.66,0,0,0,3.54,2,7.64,7.64,0,0,0,2.91.64,2.68,2.68,0,0,0,1.5-.36,1.12,1.12,0,0,0,.54-1c0-.71-.9-1.26-2.72-1.63l-1.37-.3a8.11,8.11,0,0,1-4.42-2.5,6.64,6.64,0,0,1-1.53-4.47,8.56,8.56,0,0,1,3-6.75,11.39,11.39,0,0,1,7.79-2.6,16.55,16.55,0,0,1,4.37.58,19.55,19.55,0,0,1,4.32,1.76l-2.81,6.73a11.66,11.66,0,0,0-2.68-1.5,7.18,7.18,0,0,0-2.62-.52,2.92,2.92,0,0,0-1.49.32,1,1,0,0,0-.53.91c0,.73,1.29,1.37,3.85,1.92l1,.21a7.36,7.36,0,0,1,4.18,2.44,6.77,6.77,0,0,1,1.53,4.47,8.87,8.87,0,0,1-3.08,7,11.73,11.73,0,0,1-8,2.71,18.46,18.46,0,0,1-5.06-.72A23,23,0,0,1,115.87,60.67Z" transform="translate(-19.13 -28.97)"/><path class="cls-1" d="M137.88,60.67l3-7.21a19.7,19.7,0,0,0,3.55,2,7.56,7.56,0,0,0,2.91.64,2.67,2.67,0,0,0,1.49-.36,1.11,1.11,0,0,0,.55-1c0-.71-.91-1.26-2.73-1.63l-1.37-.3a8.18,8.18,0,0,1-4.42-2.5,6.64,6.64,0,0,1-1.53-4.47,8.56,8.56,0,0,1,3-6.75,11.37,11.37,0,0,1,7.79-2.6,16.47,16.47,0,0,1,4.36.58,19.81,19.81,0,0,1,4.33,1.76l-2.82,6.73a11.45,11.45,0,0,0-2.68-1.5,7.17,7.17,0,0,0-2.61-.52,3,3,0,0,0-1.5.32,1,1,0,0,0-.52.91c0,.73,1.28,1.37,3.85,1.92l.95.21a7.33,7.33,0,0,1,4.18,2.44,6.77,6.77,0,0,1,1.53,4.47,8.87,8.87,0,0,1-3.08,7,11.72,11.72,0,0,1-8,2.71,18.48,18.48,0,0,1-5.07-.72A22.92,22.92,0,0,1,137.88,60.67Z" transform="translate(-19.13 -28.97)"/><path class="cls-1" d="M162.22,62.87V37.12h9.27v8.56h5.64V37.12h9.25V62.87h-9.25V53.79h-5.64v9.08Z" transform="translate(-19.13 -28.97)"/></svg>