<svg id="Layer_1" data-name="Layer 1" xmlns="http://www.w3.org/2000/svg" viewBox="0 0 481.17 431.71"><defs><style>.cls-1{fill:#47a094;}.cls-1,.cls-2{fill-rule:evenodd;}.cls-2{fill:#c5e3c1;}</style></defs><path class="cls-1" d="M307.37,101.22h0l1.05-.81.33-.25,1.39-1.07,1-.8.36-.28L313,96.93l1-.8.38-.3,1.44-1.1,1-.8.4-.31,1.46-1.12,1-.79.43-.33,1.47-1.14,1-.78.46-.35L324.62,88l1-.78.49-.37,1.5-1.15,1-.77.51-.39,1.52-1.16,1-.76.53-.41L333.7,81l1-.75.55-.42,1.54-1.18,1-.73.59-.45,1.55-1.17.94-.72.61-.47L343,73.93l.93-.7.63-.48,1.56-1.18.91-.69,6.1-4.59.13-.09.7-.52,1.57-1.18.84-.63.72-.54,1.57-1.16.83-.61.74-.56,1.57-1.15.8-.6.77-.56,1.56-1.15.78-.57.78-.57,5.25-3.83.14-.1.82-.59,5.1-3.65.42-.29L381,46l.1-.07L383.84,44l.38-.27L386.74,42l.51-.35,2.57-1.77.23-.15,2.65-1.8.3-.2,2.17-1.45.51-.34.2-.13q2.67-1.77,5.25-3.43l.41-.26,2.06-1.32-143,66.5q-4.49-.1-9-.11c-132,0-239,66.58-239,148.7,0,25.9,10.64,50.24,29.35,71.45h0L11.65,403.64S-.43,435.72,31.57,462.46c-7.21-16.42-8.93-34.14,5.94-47.11.55-.48,1.12-1,1.72-1.46l.1-.09c.56-.46,1.13-.93,1.72-1.4l.18-.15,1.87-1.46,0,0,0,0,.09-.06c.63-.49,1.28-1,1.94-1.47l.18-.13c.66-.49,1.33-1,2-1.47l.16-.12L49.71,406l.06,0,.1-.07,2.26-1.56.09-.06c.75-.51,1.52-1,2.31-1.55l.22-.15,2.4-1.58.1-.07.13-.08,2.39-1.54.33-.21,2.35-1.49.21-.13.27-.17,2.41-1.49.14-.09.1-.06q2.69-1.65,5.49-3.33l.26-.16.25-.14,2.57-1.53h0l.19-.12.42-.25,2-1.17.66-.38.23-.13,2.57-1.49.33-.19.22-.13,2.71-1.55.25-.14.11-.06,3-1.67.15-.09.67-.37,2.3-1.29.3-.17.19-.1.18-.11,2.64-1.46.29-.16,0,0,3.25-1.78.06,0,.64-.35,1.43-.78,1.29-.71.15-.08,1.45-.78,1.45-.78.34-.19,1.11-.6,1.45-.78.85-.45.61-.33,1.46-.78,1.36-.73.1-.05,1.47-.78,1.47-.78.39-.21,1.07-.57h0c42.09-22.27,85.51-43.15,95.53-51.5,13-10.82,22.85-32.43,27.05-42.8q1-2.88,2.22-5.79v0h0a98.43,98.43,0,0,1,9.63-17.28A132.89,132.89,0,0,1,283,217.4c23.13-16.05,41.82-31.82,60.68-33.54a8.53,8.53,0,0,1,5.64,15.5L302,232.2a11.48,11.48,0,0,0,13.1,18.86l61.92-43a8.52,8.52,0,0,1,11.53,1.69c.75.94,1.51,1.91,2.27,2.91.16.21.28.39.42.61.67,1.06,1.32,2.11,1.94,3.14a8.51,8.51,0,0,1-2.46,11.39l-61.92,43a11.48,11.48,0,0,0,13.09,18.86l47.31-32.84a8.53,8.53,0,0,1,12.55,10.7c-8.21,17.07-29.52,29.07-52.65,45.12a132.75,132.75,0,0,1-42.69,19.86,98.37,98.37,0,0,1-19.56,3h0c-2.11.1-4.17.12-6.2.06-11.19.31-34.88,2-49.56,10.38-7.79,4.44-26.64,21.61-49.22,42.18h0l-1,.91-1,.91-.1.1-.9.82-1,.92-.82.75-.2.17-1,.93-1,.93-.52.48-.51.46-1,.93-1,.94-.22.2-.82.74-1,.95-.95.87-.09.08-1.05.95-1.05.95-.65.58-.4.37-1.06,1-1.06.95-.33.31-.73.65-1.06,1-1.06,1,0,0-1.05.94-1.07,1-.77.69-.3.27-1.07,1-1.07,1-.45.41-.62.55-1.08,1-1.07,1-.14.12-.94.84-1.08,1-.89.79-.19.17-1.07.95-1.08,1-.57.5-.51.45-1.08.95-1.08.95-.24.22-.84.73-1.07.95-1,.87-.08.07-1.08.94-1.07.93-.68.59-.39.35-1.08.93-1.07.93-.35.3-.72.62-1.07.92-1.06.92,0,0-1,.88-1.06.91-.78.66-.28.24-2.12,1.79-.46.39,0,.05-1.59,1.34-1,.88-.14.12-.21.17-1.74,1.45-.87.72-.17.14-1,.85-1,.85-.06.05-.86.7-2.16,1.76C152,431,192.1,406.14,212.92,392.61h0a382.61,382.61,0,0,0,38.68,1.94c132,0,239-66.57,239-148.7,0-44.63-31.61-84.68-81.67-111.93h0C431.71,111.45,458,82.08,458,82.08l-.35.23-.28.17c-1.37.88-2.81,1.77-4.3,2.67l-.21.12-2.18,1.3-.38.22c-.72.41-1.44.83-2.18,1.24l-.25.15-2.28,1.27-.23.13-.21.11L442.79,91l-.12.07-.27.14c-.8.44-1.62.87-2.45,1.31l-.2.1c-1.73.91-3.49,1.82-5.3,2.74l-.41.21-.12.06-6,3-.07,0-3.12,1.51-.07,0-3,1.44-.33.15-3.08,1.46h0l-2.61,1.22-.71.33-.61.28-2.66,1.23-.1,0-.06,0c-2.18,1-4.38,2-6.6,3l-.19.08-1.18.53-2.29,1-.46.2q-3.27,1.45-6.58,2.89l-.38.17c-4.59,2-9.24,4-13.89,6l-.2.09h0c-42.95,18.26-86.36,34.92-96.82,42.25-38.23,26.82-21,58.3-80.41,92.59-43.67,25.21-92,23.17-108-4.56s6.41-70.64,50.08-95.84c59.4-34.3,78.05-3.65,120.39-23.35,7-3.24,22.81-15.13,42.44-30.18Z" transform="translate(-9.42 -30.75)"/><path class="cls-2" d="M232.73,214.45c-49.27,59.6-129.22,40.42-108-12.39s89.1-48.69,114.18-51,44.26-20.66,44.26-20.66L370.29,54,360.2,61l-52.83,40.22c-19.63,15-35.47,26.94-42.44,30.18-42.34,19.7-61-11-120.39,23.35-43.67,25.2-66.09,68.12-50.08,95.84s64.38,29.77,108.05,4.56c59.4-34.29,42.18-65.77,80.41-92.59,10.46-7.33,53.87-24,96.83-42.25,6.47-2.76,13.82-5.92,21.51-9.33C236.09,172.14,282,154.85,232.73,214.45" transform="translate(-9.42 -30.75)"/><path class="cls-2" d="M240.7,299.13c21.83-38.95,40.12-29.5,55.47-11.21s9.73,36.58-18.59,38.65-44,6.79-68.45,24.78-94.79,96-94.79,96l24.22-20.47,43.25-38.83c22.58-20.57,41.43-37.74,49.22-42.18,15.83-9,41.78-10.44,55.78-10.44.71-.31,28.71.45,62.25-22.84,23.13-16.05,44.44-28.05,52.65-45.12,3.78-7.86-5.39-15.67-12.55-10.7l-47.31,32.84a11.48,11.48,0,0,1-13.09-18.86l61.92-43a8.51,8.51,0,0,0,2.46-11.39l-4.63-6.66A8.52,8.52,0,0,0,377,208.07l-61.92,43A11.48,11.48,0,0,1,302,232.2l47.31-32.84c7.17-5,3.05-16.29-5.64-15.5-18.86,1.72-37.55,17.49-60.68,33.54-18.74,13-34.78,30.72-43.16,50.34-4.51,12.75-15.7,37.29-29.28,48.61-10,8.35-53.44,29.23-95.54,51.5l-1.08.58c-21.72,11.51-56.53,30.41-74.56,45.37-16.22,13.45-15.72,30.21-8,48.09-1.84-4.61-11.31-36.51,61.55-69.53,78.77-35.7,126-54.29,147.82-93.23" transform="translate(-9.42 -30.75)"/></svg>